#!OML:ASF F:\VICON\USERDATA\INSTALL\Justin_Nancy\Justin_Nancy.ASF
:FULLY-SPECIFIED
:DEGREES
1
root 1.09454 16.6321 -30.1711 3.33927 -1.75128 2.52753
lowerback 14.1729 1.08635 -4.71859
upperback 1.08592 0.69441 0.0643111
thorax -6.86342 0.47944 2.60136
lowerneck -20.7463 -5.33034 -9.44074
upperneck 10.1886 -6.21423 10.5881
head 7.13898 -2.42829 4.25961
rclavicle 7.0817e-015 -3.37934e-015
rhumerus -45.7223 12.7174 -97.5913
rradius 105.227
rwrist -5.03247
rhand -3.42767 22.0781
rfingers 7.12502
rthumb 22.3035 -6.6547
lclavicle 7.0817e-015 -3.37934e-015
lhumerus -40.6198 -10.0037 94.4581
lradius 112.758
lwrist 32.928
lhand -28.3886 11.7195
lfingers 7.12502
lthumb -1.76124 41.692
rfemur -20.6062 -2.47759 16.6682
rtibia 93.4656
rfoot 9.32217 -6.20244
rtoes 1.11003
lfemur -21.6074 1.99839 -27.8212
ltibia 47.521
lfoot -24.2112 1.05735
ltoes 0.0532576
2
root 1.07919 16.5958 -29.8241 3.61645 -2.11611 2.68825
lowerback 14.0934 1.1288 -5.04466
upperback 1.16265 0.697519 -0.0456562
thorax -6.74006 0.484548 2.66912
lowerneck -20.8415 -5.36663 -9.0317
upperneck 9.60128 -6.27651 10.2897
head 6.9447 -2.47088 4.07923
rclavicle 4.22417e-015 1.64991e-014
rhumerus -46.2616 12.0977 -97.5681
rradius 104.714
rwrist -5.09944
rhand -3.37284 21.5807
rfingers 7.12502
rthumb 22.3561 -7.14582
lclavicle 4.22417e-015 1.64991e-014
lhumerus -38.824 -10.6331 94.0598
lradius 112.82
lwrist 32.7847
lhand -28.4534 12.7818
lfingers 7.12502
lthumb -1.82377 42.7538
rfemur -23.4624 -3.00857 16.3209
rtibia 94.9083
rfoot 8.43584 -5.97372
rtoes 0.108516
lfemur -20.5481 2.36396 -27.9942
ltibia 47.5507
lfoot -25.067 1.483
ltoes -1.59211
3
root 1.07473 16.5497 -29.4925 3.89848 -1.84672 2.85037
lowerback 14.15 0.874982 -5.07462
upperback 1.26616 0.350344 -0.13752
thorax -6.63067 0.310559 2.65724
lowerneck -21.6928 -5.34352 -9.08617
upperneck 9.93857 -6.21935 10.496
head 7.19738 -2.39914 4.16106
rclavicle 1.19147e-014 5.96354e-015
rhumerus -46.7446 11.8319 -97.5366
rradius 104.525
rwrist -5.16811
rhand -2.93958 21.4537
rfingers 7.12502
rthumb 22.772 -7.22224
lclavicle 1.19147e-014 5.96354e-015
lhumerus -36.8489 -10.9839 93.6008
lradius 112.792
lwrist 32.3168
lhand -28.1217 13.5216
lfingers 7.12502
lthumb -1.50346 43.496
rfemur -25.6708 -4.16006 15.9497
rtibia 96.0192
rfoot 6.72734 -5.61403
rtoes -0.404895
lfemur -19.4715 2.18537 -28.2036
ltibia 47.3367
lfoot -25.757 1.59591
ltoes -3.40749
4
root 1.08124 16.5398 -29.1463 4.22734 -1.21342 2.87979
lowerback 14.1694 0.476627 -4.82074
upperback 1.30438 -0.134291 -0.11288
thorax -6.55967 0.0656076 2.63496
lowerneck -22.5272 -5.43024 -9.23695
upperneck 10.6283 -6.29263 10.5873
head 7.57564 -2.40034 4.2066
rclavicle -5.46658e-015 1.50082e-014
rhumerus -47.6668 11.5139 -97.4483
rradius 104.913
rwrist -5.13014
rhand -2.25862 22.6089
rfingers 7.12502
rthumb 23.4253 -5.98526
lclavicle -5.46658e-015 1.50082e-014
lhumerus -35.1319 -11.089 93.4142
lradius 112.731
lwrist 31.8067
lhand -27.5961 13.4061
lfingers 7.12502
lthumb -0.995812 43.3835
rfemur -28.7364 -5.76231 15.9457
rtibia 96.6106
rfoot 6.37867 -4.88683
rtoes 3.54433
lfemur -18.1806 1.5629 -28.2578
ltibia 46.9015
lfoot -26.2636 1.82364
ltoes -4.1229
5
root 1.07779 16.5402 -28.7971 4.51603 -1.00246 2.912
lowerback 14.3299 0.164114 -4.86633
upperback 1.06976 -0.562031 0.00630135
thorax -6.86371 -0.12765 2.87417
lowerneck -22.4025 -5.3035 -9.24011
upperneck 10.7203 -6.10294 10.3911
head 7.55753 -2.33176 4.16857
rclavicle 1.9133e-015 5.86415e-015
rhumerus -49.158 11.6192 -97.5435
rradius 105.623
rwrist -5.50406
rhand -1.39461 22.2604
rfingers 7.12502
rthumb 24.2539 -6.22557
lclavicle 1.9133e-015 5.86415e-015
lhumerus -34.4314 -10.7782 93.4114
lradius 113.018
lwrist 31.3046
lhand -27.3624 12.8734
lfingers 7.12502
lthumb -0.770132 42.8517
rfemur -31.0406 -6.96479 15.9862
rtibia 96.8277
rfoot 5.24184 -4.33972
rtoes 10.5959
lfemur -16.7112 1.2397 -28.3036
ltibia 46.2648
lfoot -26.5266 2.1699
ltoes -3.8799
6
root 1.06913 16.5637 -28.445 4.78718 -1.14687 3.10128
lowerback 14.4757 -0.0290823 -5.12253
upperback 0.798006 -0.874914 0.0186909
thorax -7.20679 -0.257082 3.09929
lowerneck -22.1418 -5.07024 -9.34048
upperneck 10.84 -5.7903 10.4094
head 7.52569 -2.19233 4.23776
rclavicle -3.60297e-015 7.45443e-015
rhumerus -50.4986 11.8635 -97.7944
rradius 106.192
rwrist -6.37987
rhand -0.512386 22.8505
rfingers 7.12502
rthumb 25.0995 -5.51987
lclavicle -3.60297e-015 7.45443e-015
lhumerus -34.0539 -10.4606 93.3526
lradius 113.571
lwrist 30.9533
lhand -27.497 12.529
lfingers 7.12502
lthumb -0.900061 42.5068
rfemur -33.454 -7.6896 16.0151
rtibia 96.6637
rfoot 4.16404 -3.86315
rtoes 12.6069
lfemur -15.1119 1.13047 -28.5436
ltibia 45.3443
lfoot -26.5563 2.38541
ltoes -3.67164
7
root 1.06398 16.5951 -28.0827 5.11044 -1.05618 3.33757
lowerback 14.2127 -0.337502 -5.24692
upperback 0.847604 -1.28833 -0.0175741
thorax -6.96693 -0.462542 3.20726
lowerneck -22.5011 -4.9279 -9.28971
upperneck 10.8064 -5.56624 10.337
head 7.54544 -2.0805 4.23405
rclavicle -2.52208e-015 -2.5842e-015
rhumerus -51.109 12.3405 -98.029
rradius 106.815
rwrist -7.70364
rhand 0.0713389 21.4796
rfingers 7.12502
rthumb 25.6587 -6.81135
lclavicle -2.52208e-015 -2.5842e-015
lhumerus -33.1541 -10.2224 93.1606
lradius 114.228
lwrist 30.9248
lhand -26.9716 13.0848
lfingers 7.12502
lthumb -0.392645 43.0642
rfemur -35.6728 -8.54638 16.0918
rtibia 96.0628
rfoot 3.10715 -3.36265
rtoes 10.7516
lfemur -13.5192 0.652258 -28.8575
ltibia 44.3175
lfoot -26.1704 2.82313
ltoes -5.84868
8
root 1.062 16.6282 -27.7123 5.44642 -0.864755 3.73302
lowerback 13.9124 -0.715661 -5.48996
upperback 0.90195 -1.81029 -0.0714786
thorax -6.6867 -0.719824 3.37848
lowerneck -23.0188 -4.70933 -8.99574
upperneck 10.7068 -5.25164 10.0083
head 7.54387 -1.93572 4.11465
rclavicle -1.4064e-014 -6.4605e-015
rhumerus -51.6752 12.9459 -98.2421
rradius 107.474
rwrist -9.05811
rhand 0.55904 21.2493
rfingers 7.12502
rthumb 26.1257 -6.97344
lclavicle -1.4064e-014 -6.4605e-015
lhumerus -32.4624 -9.88731 93.0043
lradius 114.86
lwrist 31.1603
lhand -26.6815 13.2333
lfingers 7.12502
lthumb -0.112476 43.213
rfemur -37.748 -9.49162 16.0474
rtibia 95.068
rfoot 2.12028 -2.73139
rtoes 9.6569
lfemur -11.9781 -0.0548905 -29.3937
ltibia 43.178
lfoot -25.1856 3.57827
ltoes -9.89315
9
root 1.05337 16.6874 -27.3414 5.79126 -0.798779 3.84498
lowerback 13.9784 -1.07976 -5.64333
upperback 0.603532 -2.3242 0.029143
thorax -6.98378 -0.947623 3.67753
lowerneck -22.9998 -4.16089 -8.9188
upperneck 10.9798 -4.53335 9.89982
head 7.55353 -1.59961 4.16781
rclavicle -4.15833e-014 1.22253e-014
rhumerus -52.7823 13.622 -98.5644
rradius 108.064
rwrist -10.1689
rhand 0.889353 21.6387
rfingers 7.12502
rthumb 26.4419 -6.53688
lclavicle -4.15833e-014 1.22253e-014
lhumerus -32.5128 -9.375 92.9425
lradius 115.486
lwrist 31.6917
lhand -27.169 12.509
lfingers 7.12502
lthumb -0.583344 42.4879
rfemur -39.6911 -10.0118 16.4543
rtibia 93.6098
rfoot 1.51588 -2.20234
rtoes 10.8084
lfemur -10.4907 -0.639847 -29.5548
ltibia 42.0316
lfoot -23.8712 3.59
ltoes -11.3123
